<mxfile host="app.diagrams.net" modified="2021-08-30T03:34:05.034Z" agent="5.0 (X11; Linux x86_64) AppleWebKit/537.36 (KHTML, like Gecko) Chrome/92.0.4515.159 Safari/537.36" etag="5DkQiBoECcE2QWzPmQox" version="14.9.7" type="github">
  <diagram id="7ADZEoCv_N2pfUkhOmF2" name="diagrams1">
    <mxGraphModel dx="1422" dy="761" grid="1" gridSize="10" guides="1" tooltips="1" connect="1" arrows="1" fold="1" page="1" pageScale="1" pageWidth="1200" pageHeight="1920" math="0" shadow="0">
      <root>
        <mxCell id="0" />
        <mxCell id="1" parent="0" />
        <mxCell id="9xJmFpeAfpA-4xL1wxbp-1" value="&lt;b&gt;患者诊疗全过程时序图&lt;/b&gt;" style="text;html=1;strokeColor=none;fillColor=none;align=left;verticalAlign=middle;whiteSpace=wrap;rounded=0;" vertex="1" parent="1">
          <mxGeometry x="40" y="40" width="130" height="20" as="geometry" />
        </mxCell>
        <mxCell id="9xJmFpeAfpA-4xL1wxbp-2" value="发药员" style="shape=umlLifeline;perimeter=lifelinePerimeter;whiteSpace=wrap;html=1;container=1;collapsible=0;recursiveResize=0;outlineConnect=0;" vertex="1" parent="1">
          <mxGeometry x="680" y="80" width="100" height="1040" as="geometry" />
        </mxCell>
        <mxCell id="9xJmFpeAfpA-4xL1wxbp-3" value="检查/化验员" style="shape=umlLifeline;perimeter=lifelinePerimeter;whiteSpace=wrap;html=1;container=1;collapsible=0;recursiveResize=0;outlineConnect=0;" vertex="1" parent="1">
          <mxGeometry x="520" y="80" width="100" height="1040" as="geometry" />
        </mxCell>
        <mxCell id="9xJmFpeAfpA-4xL1wxbp-4" value="" style="html=1;points=[];perimeter=orthogonalPerimeter;" vertex="1" parent="9xJmFpeAfpA-4xL1wxbp-3">
          <mxGeometry x="45" y="400" width="10" height="70" as="geometry" />
        </mxCell>
        <mxCell id="9xJmFpeAfpA-4xL1wxbp-5" value="" style="html=1;points=[];perimeter=orthogonalPerimeter;" vertex="1" parent="9xJmFpeAfpA-4xL1wxbp-3">
          <mxGeometry x="45" y="520" width="10" height="20" as="geometry" />
        </mxCell>
        <mxCell id="9xJmFpeAfpA-4xL1wxbp-6" value="患者" style="shape=umlLifeline;perimeter=lifelinePerimeter;whiteSpace=wrap;html=1;container=1;collapsible=0;recursiveResize=0;outlineConnect=0;" vertex="1" parent="1">
          <mxGeometry x="40" y="80" width="100" height="1040" as="geometry" />
        </mxCell>
        <mxCell id="9xJmFpeAfpA-4xL1wxbp-7" value="" style="html=1;points=[];perimeter=orthogonalPerimeter;" vertex="1" parent="9xJmFpeAfpA-4xL1wxbp-6">
          <mxGeometry x="45" y="70" width="10" height="80" as="geometry" />
        </mxCell>
        <mxCell id="9xJmFpeAfpA-4xL1wxbp-8" value="" style="html=1;points=[];perimeter=orthogonalPerimeter;" vertex="1" parent="9xJmFpeAfpA-4xL1wxbp-6">
          <mxGeometry x="45" y="180" width="10" height="820" as="geometry" />
        </mxCell>
        <mxCell id="9xJmFpeAfpA-4xL1wxbp-9" value="挂号" style="text;html=1;align=center;verticalAlign=middle;resizable=0;points=[];autosize=1;" vertex="1" parent="1">
          <mxGeometry x="140" y="140" width="40" height="20" as="geometry" />
        </mxCell>
        <mxCell id="9xJmFpeAfpA-4xL1wxbp-10" value="主治医生" style="shape=umlLifeline;perimeter=lifelinePerimeter;whiteSpace=wrap;html=1;container=1;collapsible=0;recursiveResize=0;outlineConnect=0;" vertex="1" parent="1">
          <mxGeometry x="360" y="80" width="100" height="1040" as="geometry" />
        </mxCell>
        <mxCell id="9xJmFpeAfpA-4xL1wxbp-11" value="挂号机/收费员" style="shape=umlLifeline;perimeter=lifelinePerimeter;whiteSpace=wrap;html=1;container=1;collapsible=0;recursiveResize=0;outlineConnect=0;" vertex="1" parent="1">
          <mxGeometry x="200" y="80" width="100" height="1040" as="geometry" />
        </mxCell>
        <mxCell id="9xJmFpeAfpA-4xL1wxbp-12" value="打印处方单、治疗单" style="text;html=1;align=center;verticalAlign=middle;resizable=0;points=[];autosize=1;" vertex="1" parent="9xJmFpeAfpA-4xL1wxbp-11">
          <mxGeometry x="-10" y="632" width="120" height="20" as="geometry" />
        </mxCell>
        <mxCell id="9xJmFpeAfpA-4xL1wxbp-13" value="" style="html=1;points=[];perimeter=orthogonalPerimeter;" vertex="1" parent="9xJmFpeAfpA-4xL1wxbp-11">
          <mxGeometry x="45" y="700" width="10" height="90" as="geometry" />
        </mxCell>
        <mxCell id="9xJmFpeAfpA-4xL1wxbp-14" value="" style="edgeStyle=orthogonalEdgeStyle;orthogonalLoop=1;jettySize=auto;html=1;exitX=1.15;exitY=0.31;exitDx=0;exitDy=0;exitPerimeter=0;entryX=1.1;entryY=0.579;entryDx=0;entryDy=0;entryPerimeter=0;rounded=0;" edge="1" parent="1" source="9xJmFpeAfpA-4xL1wxbp-16" target="9xJmFpeAfpA-4xL1wxbp-16">
          <mxGeometry relative="1" as="geometry">
            <Array as="points">
              <mxPoint x="280" y="172" />
              <mxPoint x="280" y="191" />
              <mxPoint x="256" y="191" />
            </Array>
          </mxGeometry>
        </mxCell>
        <mxCell id="9xJmFpeAfpA-4xL1wxbp-15" value="" style="orthogonalLoop=1;jettySize=auto;html=1;curved=1;dashed=1;" edge="1" parent="1" source="9xJmFpeAfpA-4xL1wxbp-16" target="9xJmFpeAfpA-4xL1wxbp-7">
          <mxGeometry relative="1" as="geometry">
            <mxPoint x="100" y="190" as="targetPoint" />
            <Array as="points">
              <mxPoint x="170" y="210" />
            </Array>
          </mxGeometry>
        </mxCell>
        <mxCell id="9xJmFpeAfpA-4xL1wxbp-16" value="" style="html=1;points=[];perimeter=orthogonalPerimeter;" vertex="1" parent="1">
          <mxGeometry x="245" y="150" width="10" height="70" as="geometry" />
        </mxCell>
        <mxCell id="9xJmFpeAfpA-4xL1wxbp-17" value="" style="edgeStyle=orthogonalEdgeStyle;rounded=0;orthogonalLoop=1;jettySize=auto;html=1;" edge="1" parent="1" source="9xJmFpeAfpA-4xL1wxbp-7" target="9xJmFpeAfpA-4xL1wxbp-16">
          <mxGeometry relative="1" as="geometry">
            <Array as="points">
              <mxPoint x="170" y="160" />
              <mxPoint x="170" y="160" />
            </Array>
          </mxGeometry>
        </mxCell>
        <mxCell id="9xJmFpeAfpA-4xL1wxbp-18" value="打印挂号单" style="text;html=1;align=center;verticalAlign=middle;resizable=0;points=[];autosize=1;" vertex="1" parent="1">
          <mxGeometry x="120" y="180" width="80" height="20" as="geometry" />
        </mxCell>
        <mxCell id="9xJmFpeAfpA-4xL1wxbp-19" value="" style="edgeStyle=orthogonalEdgeStyle;rounded=0;orthogonalLoop=1;jettySize=auto;html=1;strokeColor=#000000;dashed=1;" edge="1" parent="1" source="9xJmFpeAfpA-4xL1wxbp-20" target="9xJmFpeAfpA-4xL1wxbp-8">
          <mxGeometry relative="1" as="geometry">
            <mxPoint x="520" y="320" as="targetPoint" />
            <Array as="points">
              <mxPoint x="330" y="340" />
              <mxPoint x="330" y="340" />
            </Array>
          </mxGeometry>
        </mxCell>
        <mxCell id="9xJmFpeAfpA-4xL1wxbp-20" value="" style="html=1;points=[];perimeter=orthogonalPerimeter;" vertex="1" parent="1">
          <mxGeometry x="405" y="280" width="10" height="80" as="geometry" />
        </mxCell>
        <mxCell id="9xJmFpeAfpA-4xL1wxbp-21" value="" style="edgeStyle=orthogonalEdgeStyle;rounded=0;orthogonalLoop=1;jettySize=auto;html=1;strokeColor=#000000;" edge="1" parent="1" source="9xJmFpeAfpA-4xL1wxbp-8" target="9xJmFpeAfpA-4xL1wxbp-20">
          <mxGeometry relative="1" as="geometry">
            <Array as="points">
              <mxPoint x="210" y="290" />
              <mxPoint x="210" y="290" />
            </Array>
          </mxGeometry>
        </mxCell>
        <mxCell id="9xJmFpeAfpA-4xL1wxbp-22" value="患者问诊" style="text;html=1;align=center;verticalAlign=middle;resizable=0;points=[];autosize=1;" vertex="1" parent="1">
          <mxGeometry x="200" y="260" width="60" height="20" as="geometry" />
        </mxCell>
        <mxCell id="9xJmFpeAfpA-4xL1wxbp-23" value="治疗" style="text;html=1;align=center;verticalAlign=middle;resizable=0;points=[];autosize=1;" vertex="1" parent="1">
          <mxGeometry x="470" y="1000" width="40" height="20" as="geometry" />
        </mxCell>
        <mxCell id="9xJmFpeAfpA-4xL1wxbp-24" value="告知患者做检查/检验" style="text;html=1;align=center;verticalAlign=middle;resizable=0;points=[];autosize=1;" vertex="1" parent="1">
          <mxGeometry x="165" y="310" width="130" height="20" as="geometry" />
        </mxCell>
        <mxCell id="9xJmFpeAfpA-4xL1wxbp-25" value="缴纳检查/化验费" style="text;html=1;align=center;verticalAlign=middle;resizable=0;points=[];autosize=1;" vertex="1" parent="1">
          <mxGeometry x="125" y="360" width="100" height="20" as="geometry" />
        </mxCell>
        <mxCell id="9xJmFpeAfpA-4xL1wxbp-26" value="" style="html=1;points=[];perimeter=orthogonalPerimeter;" vertex="1" parent="1">
          <mxGeometry x="245" y="370" width="10" height="80" as="geometry" />
        </mxCell>
        <mxCell id="9xJmFpeAfpA-4xL1wxbp-27" value="" style="edgeStyle=orthogonalEdgeStyle;rounded=0;orthogonalLoop=1;jettySize=auto;html=1;strokeColor=#000000;entryX=0.05;entryY=0.256;entryDx=0;entryDy=0;entryPerimeter=0;" edge="1" parent="1" target="9xJmFpeAfpA-4xL1wxbp-26">
          <mxGeometry relative="1" as="geometry">
            <mxPoint x="95" y="390" as="sourcePoint" />
            <mxPoint x="400" y="390" as="targetPoint" />
            <Array as="points">
              <mxPoint x="210" y="390" />
            </Array>
          </mxGeometry>
        </mxCell>
        <mxCell id="9xJmFpeAfpA-4xL1wxbp-28" value="打印收费单" style="text;html=1;align=center;verticalAlign=middle;resizable=0;points=[];autosize=1;" vertex="1" parent="1">
          <mxGeometry x="140" y="410" width="80" height="20" as="geometry" />
        </mxCell>
        <mxCell id="9xJmFpeAfpA-4xL1wxbp-29" value="收费" style="text;html=1;align=center;verticalAlign=middle;resizable=0;points=[];autosize=1;" vertex="1" parent="1">
          <mxGeometry x="280" y="170" width="40" height="20" as="geometry" />
        </mxCell>
        <mxCell id="9xJmFpeAfpA-4xL1wxbp-30" value="" style="orthogonalLoop=1;jettySize=auto;html=1;curved=1;dashed=1;" edge="1" parent="1">
          <mxGeometry relative="1" as="geometry">
            <mxPoint x="245" y="440" as="sourcePoint" />
            <mxPoint x="95" y="440" as="targetPoint" />
            <Array as="points">
              <mxPoint x="170" y="440" />
            </Array>
          </mxGeometry>
        </mxCell>
        <mxCell id="9xJmFpeAfpA-4xL1wxbp-31" value="" style="rounded=0;orthogonalLoop=1;jettySize=auto;html=1;strokeColor=#000000;" edge="1" parent="1">
          <mxGeometry relative="1" as="geometry">
            <mxPoint x="100" y="490" as="sourcePoint" />
            <mxPoint x="565" y="490" as="targetPoint" />
          </mxGeometry>
        </mxCell>
        <mxCell id="9xJmFpeAfpA-4xL1wxbp-32" value="" style="edgeStyle=orthogonalEdgeStyle;orthogonalLoop=1;jettySize=auto;html=1;exitX=1.15;exitY=0.31;exitDx=0;exitDy=0;exitPerimeter=0;entryX=1.1;entryY=0.579;entryDx=0;entryDy=0;entryPerimeter=0;rounded=0;" edge="1" parent="1">
          <mxGeometry relative="1" as="geometry">
            <mxPoint x="255.5" y="410" as="sourcePoint" />
            <mxPoint x="255" y="428.8299999999999" as="targetPoint" />
            <Array as="points">
              <mxPoint x="279" y="410.3" />
              <mxPoint x="279" y="429.3" />
              <mxPoint x="255" y="429.3" />
            </Array>
          </mxGeometry>
        </mxCell>
        <mxCell id="9xJmFpeAfpA-4xL1wxbp-33" value="收费" style="text;html=1;align=center;verticalAlign=middle;resizable=0;points=[];autosize=1;" vertex="1" parent="1">
          <mxGeometry x="280" y="410" width="40" height="20" as="geometry" />
        </mxCell>
        <mxCell id="9xJmFpeAfpA-4xL1wxbp-34" value="患者做检查/检验" style="text;html=1;align=center;verticalAlign=middle;resizable=0;points=[];autosize=1;" vertex="1" parent="1">
          <mxGeometry x="290" y="460" width="100" height="20" as="geometry" />
        </mxCell>
        <mxCell id="9xJmFpeAfpA-4xL1wxbp-35" value="" style="edgeStyle=orthogonalEdgeStyle;orthogonalLoop=1;jettySize=auto;html=1;exitX=1.15;exitY=0.31;exitDx=0;exitDy=0;exitPerimeter=0;entryX=1.1;entryY=0.579;entryDx=0;entryDy=0;entryPerimeter=0;rounded=0;" edge="1" parent="1">
          <mxGeometry relative="1" as="geometry">
            <mxPoint x="575.5" y="500" as="sourcePoint" />
            <mxPoint x="575" y="518.8299999999999" as="targetPoint" />
            <Array as="points">
              <mxPoint x="599" y="500.3" />
              <mxPoint x="599" y="519.3" />
              <mxPoint x="575" y="519.3" />
            </Array>
          </mxGeometry>
        </mxCell>
        <mxCell id="9xJmFpeAfpA-4xL1wxbp-36" value="检查/化验" style="text;html=1;align=center;verticalAlign=middle;resizable=0;points=[];autosize=1;" vertex="1" parent="1">
          <mxGeometry x="600" y="500" width="70" height="20" as="geometry" />
        </mxCell>
        <mxCell id="9xJmFpeAfpA-4xL1wxbp-37" value="" style="orthogonalLoop=1;jettySize=auto;html=1;curved=1;dashed=1;" edge="1" parent="1">
          <mxGeometry relative="1" as="geometry">
            <mxPoint x="565" y="540" as="sourcePoint" />
            <mxPoint x="100" y="540" as="targetPoint" />
            <Array as="points">
              <mxPoint x="490" y="540" />
            </Array>
          </mxGeometry>
        </mxCell>
        <mxCell id="9xJmFpeAfpA-4xL1wxbp-38" value="告知检查/检验完成" style="text;html=1;align=center;verticalAlign=middle;resizable=0;points=[];autosize=1;" vertex="1" parent="1">
          <mxGeometry x="285" y="510" width="110" height="20" as="geometry" />
        </mxCell>
        <mxCell id="9xJmFpeAfpA-4xL1wxbp-39" value="" style="html=1;points=[];perimeter=orthogonalPerimeter;" vertex="1" parent="1">
          <mxGeometry x="405" y="580" width="10" height="170" as="geometry" />
        </mxCell>
        <mxCell id="9xJmFpeAfpA-4xL1wxbp-40" value="" style="edgeStyle=orthogonalEdgeStyle;rounded=0;orthogonalLoop=1;jettySize=auto;html=1;strokeColor=#000000;" edge="1" parent="1">
          <mxGeometry relative="1" as="geometry">
            <mxPoint x="95" y="590" as="sourcePoint" />
            <mxPoint x="405" y="590" as="targetPoint" />
            <Array as="points">
              <mxPoint x="210" y="590" />
              <mxPoint x="210" y="590" />
            </Array>
          </mxGeometry>
        </mxCell>
        <mxCell id="9xJmFpeAfpA-4xL1wxbp-41" value="患者继续问诊" style="text;html=1;align=center;verticalAlign=middle;resizable=0;points=[];autosize=1;" vertex="1" parent="1">
          <mxGeometry x="205" y="563" width="90" height="20" as="geometry" />
        </mxCell>
        <mxCell id="9xJmFpeAfpA-4xL1wxbp-42" value="" style="edgeStyle=orthogonalEdgeStyle;orthogonalLoop=1;jettySize=auto;html=1;exitX=1.15;exitY=0.31;exitDx=0;exitDy=0;exitPerimeter=0;entryX=1.1;entryY=0.579;entryDx=0;entryDy=0;entryPerimeter=0;rounded=0;" edge="1" parent="1">
          <mxGeometry relative="1" as="geometry">
            <mxPoint x="415.5" y="310" as="sourcePoint" />
            <mxPoint x="415" y="328.8299999999999" as="targetPoint" />
            <Array as="points">
              <mxPoint x="439" y="310.3" />
              <mxPoint x="439" y="329.3" />
              <mxPoint x="415" y="329.3" />
            </Array>
          </mxGeometry>
        </mxCell>
        <mxCell id="9xJmFpeAfpA-4xL1wxbp-43" value="问诊" style="text;html=1;align=center;verticalAlign=middle;resizable=0;points=[];autosize=1;" vertex="1" parent="1">
          <mxGeometry x="440" y="310" width="40" height="20" as="geometry" />
        </mxCell>
        <mxCell id="9xJmFpeAfpA-4xL1wxbp-44" value="" style="edgeStyle=orthogonalEdgeStyle;orthogonalLoop=1;jettySize=auto;html=1;exitX=1.15;exitY=0.31;exitDx=0;exitDy=0;exitPerimeter=0;entryX=1.1;entryY=0.579;entryDx=0;entryDy=0;entryPerimeter=0;rounded=0;" edge="1" parent="1">
          <mxGeometry relative="1" as="geometry">
            <mxPoint x="415.5" y="630" as="sourcePoint" />
            <mxPoint x="415" y="648.8299999999999" as="targetPoint" />
            <Array as="points">
              <mxPoint x="439" y="630.3" />
              <mxPoint x="439" y="649.3" />
              <mxPoint x="415" y="649.3" />
            </Array>
          </mxGeometry>
        </mxCell>
        <mxCell id="9xJmFpeAfpA-4xL1wxbp-45" value="问诊" style="text;html=1;align=center;verticalAlign=middle;resizable=0;points=[];autosize=1;" vertex="1" parent="1">
          <mxGeometry x="440" y="630" width="40" height="20" as="geometry" />
        </mxCell>
        <mxCell id="9xJmFpeAfpA-4xL1wxbp-46" value="" style="edgeStyle=orthogonalEdgeStyle;orthogonalLoop=1;jettySize=auto;html=1;exitX=1.15;exitY=0.31;exitDx=0;exitDy=0;exitPerimeter=0;entryX=1.1;entryY=0.579;entryDx=0;entryDy=0;entryPerimeter=0;rounded=0;" edge="1" parent="1">
          <mxGeometry relative="1" as="geometry">
            <mxPoint x="415.5" y="670" as="sourcePoint" />
            <mxPoint x="415" y="688.8299999999999" as="targetPoint" />
            <Array as="points">
              <mxPoint x="439" y="670.3" />
              <mxPoint x="439" y="689.3" />
              <mxPoint x="415" y="689.3" />
            </Array>
          </mxGeometry>
        </mxCell>
        <mxCell id="9xJmFpeAfpA-4xL1wxbp-47" value="开处方单" style="text;html=1;align=center;verticalAlign=middle;resizable=0;points=[];autosize=1;" vertex="1" parent="1">
          <mxGeometry x="440" y="670" width="60" height="20" as="geometry" />
        </mxCell>
        <mxCell id="9xJmFpeAfpA-4xL1wxbp-48" value="" style="edgeStyle=orthogonalEdgeStyle;orthogonalLoop=1;jettySize=auto;html=1;exitX=1.15;exitY=0.31;exitDx=0;exitDy=0;exitPerimeter=0;entryX=1.1;entryY=0.579;entryDx=0;entryDy=0;entryPerimeter=0;rounded=0;" edge="1" parent="1">
          <mxGeometry relative="1" as="geometry">
            <mxPoint x="415.5" y="710" as="sourcePoint" />
            <mxPoint x="415" y="728.8299999999999" as="targetPoint" />
            <Array as="points">
              <mxPoint x="439" y="710.3" />
              <mxPoint x="439" y="729.3" />
              <mxPoint x="415" y="729.3" />
            </Array>
          </mxGeometry>
        </mxCell>
        <mxCell id="9xJmFpeAfpA-4xL1wxbp-49" value="开治疗单" style="text;html=1;align=center;verticalAlign=middle;resizable=0;points=[];autosize=1;" vertex="1" parent="1">
          <mxGeometry x="440" y="710" width="60" height="20" as="geometry" />
        </mxCell>
        <mxCell id="9xJmFpeAfpA-4xL1wxbp-50" value="" style="edgeStyle=orthogonalEdgeStyle;rounded=0;orthogonalLoop=1;jettySize=auto;html=1;strokeColor=#000000;dashed=1;" edge="1" parent="1">
          <mxGeometry relative="1" as="geometry">
            <mxPoint x="405" y="740" as="sourcePoint" />
            <mxPoint x="95" y="740" as="targetPoint" />
            <Array as="points">
              <mxPoint x="330" y="740" />
              <mxPoint x="330" y="740" />
            </Array>
          </mxGeometry>
        </mxCell>
        <mxCell id="9xJmFpeAfpA-4xL1wxbp-51" value="" style="edgeStyle=orthogonalEdgeStyle;rounded=0;orthogonalLoop=1;jettySize=auto;html=1;strokeColor=#000000;entryX=0.05;entryY=0.256;entryDx=0;entryDy=0;entryPerimeter=0;" edge="1" parent="1">
          <mxGeometry relative="1" as="geometry">
            <mxPoint x="94.5" y="800" as="sourcePoint" />
            <mxPoint x="245" y="800.48" as="targetPoint" />
            <Array as="points">
              <mxPoint x="209.5" y="800" />
            </Array>
          </mxGeometry>
        </mxCell>
        <mxCell id="9xJmFpeAfpA-4xL1wxbp-52" value="缴纳药费、治疗费" style="text;html=1;align=center;verticalAlign=middle;resizable=0;points=[];autosize=1;" vertex="1" parent="1">
          <mxGeometry x="115" y="770" width="110" height="20" as="geometry" />
        </mxCell>
        <mxCell id="9xJmFpeAfpA-4xL1wxbp-53" value="" style="edgeStyle=orthogonalEdgeStyle;orthogonalLoop=1;jettySize=auto;html=1;exitX=1.15;exitY=0.31;exitDx=0;exitDy=0;exitPerimeter=0;entryX=1.1;entryY=0.579;entryDx=0;entryDy=0;entryPerimeter=0;rounded=0;" edge="1" parent="1">
          <mxGeometry relative="1" as="geometry">
            <mxPoint x="256.5" y="820" as="sourcePoint" />
            <mxPoint x="256" y="838.8299999999999" as="targetPoint" />
            <Array as="points">
              <mxPoint x="280" y="820.3" />
              <mxPoint x="280" y="839.3" />
              <mxPoint x="256" y="839.3" />
            </Array>
          </mxGeometry>
        </mxCell>
        <mxCell id="9xJmFpeAfpA-4xL1wxbp-54" value="收费" style="text;html=1;align=center;verticalAlign=middle;resizable=0;points=[];autosize=1;" vertex="1" parent="1">
          <mxGeometry x="280" y="820" width="40" height="20" as="geometry" />
        </mxCell>
        <mxCell id="9xJmFpeAfpA-4xL1wxbp-55" value="" style="edgeStyle=orthogonalEdgeStyle;rounded=0;orthogonalLoop=1;jettySize=auto;html=1;strokeColor=#000000;entryX=0.05;entryY=0.256;entryDx=0;entryDy=0;entryPerimeter=0;" edge="1" parent="1">
          <mxGeometry relative="1" as="geometry">
            <mxPoint x="415" y="610" as="sourcePoint" />
            <mxPoint x="565.5" y="610.48" as="targetPoint" />
            <Array as="points">
              <mxPoint x="530" y="610" />
            </Array>
          </mxGeometry>
        </mxCell>
        <mxCell id="9xJmFpeAfpA-4xL1wxbp-56" value="调取检查/化验" style="text;html=1;align=center;verticalAlign=middle;resizable=0;points=[];autosize=1;" vertex="1" parent="1">
          <mxGeometry x="440" y="590" width="90" height="20" as="geometry" />
        </mxCell>
        <mxCell id="9xJmFpeAfpA-4xL1wxbp-57" value="" style="orthogonalLoop=1;jettySize=auto;html=1;curved=1;dashed=1;" edge="1" parent="1">
          <mxGeometry relative="1" as="geometry">
            <mxPoint x="245" y="860" as="sourcePoint" />
            <mxPoint x="95" y="860" as="targetPoint" />
            <Array as="points">
              <mxPoint x="170" y="860" />
            </Array>
          </mxGeometry>
        </mxCell>
        <mxCell id="9xJmFpeAfpA-4xL1wxbp-58" value="打印收费单" style="text;html=1;align=center;verticalAlign=middle;resizable=0;points=[];autosize=1;" vertex="1" parent="1">
          <mxGeometry x="120" y="840" width="80" height="20" as="geometry" />
        </mxCell>
        <mxCell id="9xJmFpeAfpA-4xL1wxbp-59" value="" style="html=1;points=[];perimeter=orthogonalPerimeter;" vertex="1" parent="1">
          <mxGeometry x="726" y="900" width="10" height="70" as="geometry" />
        </mxCell>
        <mxCell id="9xJmFpeAfpA-4xL1wxbp-60" value="" style="rounded=0;orthogonalLoop=1;jettySize=auto;html=1;strokeColor=#000000;" edge="1" parent="1">
          <mxGeometry relative="1" as="geometry">
            <mxPoint x="100" y="910" as="sourcePoint" />
            <mxPoint x="720" y="910" as="targetPoint" />
          </mxGeometry>
        </mxCell>
        <mxCell id="9xJmFpeAfpA-4xL1wxbp-61" value="患者取药" style="text;html=1;align=center;verticalAlign=middle;resizable=0;points=[];autosize=1;" vertex="1" parent="1">
          <mxGeometry x="380" y="880" width="60" height="20" as="geometry" />
        </mxCell>
        <mxCell id="9xJmFpeAfpA-4xL1wxbp-62" value="" style="orthogonalLoop=1;jettySize=auto;html=1;curved=1;dashed=1;" edge="1" parent="1">
          <mxGeometry relative="1" as="geometry">
            <mxPoint x="723" y="949.75" as="sourcePoint" />
            <mxPoint x="98" y="950" as="targetPoint" />
            <Array as="points">
              <mxPoint x="648" y="949.75" />
            </Array>
          </mxGeometry>
        </mxCell>
        <mxCell id="9xJmFpeAfpA-4xL1wxbp-63" value="发药" style="text;html=1;align=center;verticalAlign=middle;resizable=0;points=[];autosize=1;" vertex="1" parent="1">
          <mxGeometry x="390" y="925" width="40" height="20" as="geometry" />
        </mxCell>
        <mxCell id="9xJmFpeAfpA-4xL1wxbp-64" value="治疗医生" style="shape=umlLifeline;perimeter=lifelinePerimeter;whiteSpace=wrap;html=1;container=1;collapsible=0;recursiveResize=0;outlineConnect=0;" vertex="1" parent="1">
          <mxGeometry x="840" y="80" width="100" height="1040" as="geometry" />
        </mxCell>
        <mxCell id="9xJmFpeAfpA-4xL1wxbp-65" value="" style="html=1;points=[];perimeter=orthogonalPerimeter;" vertex="1" parent="1">
          <mxGeometry x="885" y="1000" width="10" height="80" as="geometry" />
        </mxCell>
        <mxCell id="9xJmFpeAfpA-4xL1wxbp-66" value="" style="rounded=0;orthogonalLoop=1;jettySize=auto;html=1;strokeColor=#000000;" edge="1" parent="1">
          <mxGeometry relative="1" as="geometry">
            <mxPoint x="101.5" y="1030" as="sourcePoint" />
            <mxPoint x="885" y="1030" as="targetPoint" />
          </mxGeometry>
        </mxCell>
      </root>
    </mxGraphModel>
  </diagram>
</mxfile>
